Input #0, mov,mp4,m4a,3gp,3g2,mj2, from '/home/hbattu/projects/huberman-gpt/huberman-audio/mp3/tmpsb5pd8mq.mp4':
  Metadata:
    major_brand     : dash
    minor_version   : 0
    compatible_brands: iso6mp41
    creation_time   : 2023-02-21T21:44:03.000000Z
  Duration: 03:05:05.13, start: 0.000000, bitrate: 129 kb/s
    Stream #0:0(eng): Audio: aac (LC) (mp4a / 0x6134706D), 44100 Hz, stereo, fltp, 0 kb/s (default)
    Metadata:
      creation_time   : 2023-02-21T21:44:03.000000Z
      handler_name    : ISO Media file produced by Google Inc.
Stream mapping:
  Stream #0:0 -> #0:0 (aac (native) -> mp3 (libmp3lame))
Press [q] to stop, [?] for help
[graph_0_in_0_0 @ 0x5635c1f555c0] tb:1/44100 samplefmt:fltp samplerate:44100 chlayout:0x3
Output #0, mp3, to '../huberman-audio/mp3/juD99_sPWGU.mp3':
  Metadata:
    major_brand     : dash
    minor_version   : 0
    compatible_brands: iso6mp41
    TSSE            : Lavf58.29.100
    Stream #0:0(eng): Audio: mp3 (libmp3lame), 44100 Hz, stereo, fltp, delay 1105 (default)
    Metadata:
      creation_time   : 2023-02-21T21:44:03.000000Z
      handler_name    : ISO Media file produced by Google Inc.
      encoder         : Lavc58.54.100 libmp3lame
No more output streams to write to, finishing.
size=  173519kB time=03:05:05.15 bitrate= 128.0kbits/s speed=94.9x    
[AVIOContext @ 0x5635c1e3c900] Statistics: 0 seeks, 235 writeouts
video:0kB audio:173518kB subtitle:0kB other streams:0kB global headers:0kB muxing overhead: 0.000195%
Input file #0 (/home/hbattu/projects/huberman-gpt/huberman-audio/mp3/tmpsb5pd8mq.mp4):
  Input stream #0:0 (audio): 478258 packets read (177682065 bytes); 478258 frames decoded (489736192 samples); 
  Total: 478258 packets (177682065 bytes) demuxed
Output file #0 (../huberman-audio/mp3/juD99_sPWGU.mp3):
  Output stream #0:0 (audio): 425119 frames encoded (489736192 samples); 425120 packets muxed (177682808 bytes); 
  Total: 425120 packets (177682808 bytes) muxed
[AVIOContext @ 0x5635c1e6df40] Statistics: 2 seeks, 679 writeouts
[AVIOContext @ 0x5635c1e45880] Statistics: 179724869 bytes read, 0 seeks
